<svg width="359.40001220703124px" height="126.839990234375px" xmlns="http://www.w3.org/2000/svg" viewBox="70.29999389648438 11.580004882812503 359.40001220703124 126.839990234375" style="background: rgba(0, 0, 0, 0) none repeat scroll 0% 0%;" preserveAspectRatio="xMidYMid"><defs><filter id="editing-hole" x="-100%" y="-100%" width="300%" height="300%"><feFlood flood-color="#000" result="black"></feFlood><feMorphology operator="dilate" radius="2" in="SourceGraphic" result="erode"></feMorphology><feGaussianBlur in="erode" stdDeviation="4" result="blur"></feGaussianBlur><feOffset in="blur" dx="2" dy="2" result="offset"></feOffset><feComposite operator="atop" in="offset" in2="black" result="merge"></feComposite><feComposite operator="in" in="merge" in2="SourceGraphic" result="inner-shadow"></feComposite></filter></defs><g filter="url(#editing-hole)"><g transform="translate(120.9765625, 104.12109375)"><path d="M4.99 0L4.99-44.80L19.14-44.80L19.14-44.80Q24.38-44.80 27.39-42.11L27.39-42.11L27.39-42.11Q30.40-39.42 30.40-33.92L30.40-33.92L30.40-33.92Q30.40-31.42 29.57-29.18L29.57-29.18L29.57-29.18Q28.74-26.94 26.18-25.22L26.18-25.22L26.11-25.09L26.11-25.02L26.11-25.02Q28.93-23.74 30.82-20.86L30.82-20.86L30.82-20.86Q32.70-17.98 32.70-13.38L32.70-13.38L32.70-13.38Q32.70-7.87 29.73-3.94L29.73-3.94L29.73-3.94Q26.75 0 19.71 0L19.71 0L4.99 0ZM19.01-26.43L19.01-26.43Q22.59-26.43 24.64-28.35L24.64-28.35L24.64-28.35Q26.69-30.27 26.69-33.92L26.69-33.92L26.69-33.92Q26.69-41.41 18.62-41.41L18.62-41.41L8.58-41.41L8.58-26.43L19.01-26.43ZM19.58-3.39L19.58-3.39Q23.87-3.39 26.37-5.70L26.37-5.70L26.37-5.70Q28.86-8 28.86-13.63L28.86-13.63L28.86-13.63Q28.86-18.11 26.43-20.51L26.43-20.51L26.43-20.51Q24-22.91 20.67-22.91L20.67-22.91L8.58-22.91L8.58-3.39L19.58-3.39ZM47.10-34.50L47.10-34.50Q46.27-34.50 45.63-35.14L45.63-35.14L45.63-35.14Q44.99-35.78 44.99-36.61L44.99-36.61L44.99-36.61Q44.99-37.50 45.63-38.11L45.63-38.11L45.63-38.11Q46.27-38.72 47.10-38.72L47.10-38.72L47.10-38.72Q48-38.72 48.61-38.11L48.61-38.11L48.61-38.11Q49.22-37.50 49.22-36.61L49.22-36.61L49.22-36.61Q49.22-35.78 48.61-35.14L48.61-35.14L48.61-35.14Q48-34.50 47.10-34.50L47.10-34.50ZM57.09-34.50L57.09-34.50Q56.26-34.50 55.62-35.14L55.62-35.14L55.62-35.14Q54.98-35.78 54.98-36.61L54.98-36.61L54.98-36.61Q54.98-37.50 55.62-38.11L55.62-38.11L55.62-38.11Q56.26-38.72 57.09-38.72L57.09-38.72L57.09-38.72Q57.98-38.72 58.59-38.11L58.59-38.11L58.59-38.11Q59.20-37.50 59.20-36.61L59.20-36.61L59.20-36.61Q59.20-35.78 58.59-35.14L58.59-35.14L58.59-35.14Q57.98-34.50 57.09-34.50L57.09-34.50ZM63.68-11.78L63.68-11.78Q63.68-6.40 60.74-2.88L60.74-2.88L60.74-2.88Q57.79 0.64 51.84 0.64L51.84 0.64L51.84 0.64Q45.89 0.64 42.85-2.91L42.85-2.91L42.85-2.91Q39.81-6.46 39.81-11.78L39.81-11.78L39.81-20.22L39.81-20.22Q39.81-26.30 42.91-29.54L42.91-29.54L42.91-29.54Q46.02-32.77 51.84-32.77L51.84-32.77L51.84-32.77Q57.41-32.77 60.54-29.41L60.54-29.41L60.54-29.41Q63.68-26.05 63.68-20.22L63.68-20.22L63.68-11.78ZM60.10-20.22L60.10-20.22Q60.10-25.02 57.89-27.26L57.89-27.26L57.89-27.26Q55.68-29.50 51.84-29.50L51.84-29.50L51.84-29.50Q47.87-29.50 45.63-27.26L45.63-27.26L45.63-27.26Q43.39-25.02 43.39-20.22L43.39-20.22L43.39-11.14L43.39-11.14Q43.39-7.30 45.66-4.93L45.66-4.93L45.66-4.93Q47.94-2.56 51.84-2.56L51.84-2.56L51.84-2.56Q55.81-2.56 57.95-4.90L57.95-4.90L57.95-4.90Q60.10-7.23 60.10-11.14L60.10-11.14L60.10-20.22ZM69.70 0L69.70-32.06L73.28-32.06L73.09-29.82L73.09-29.82Q76.10-32.64 80.96-32.64L80.96-32.64L80.96-32.64Q82.69-32.64 85.70-32.06L85.70-32.06L84.74-28.80L84.74-28.80Q82.69-29.44 80.45-29.44L80.45-29.44L80.45-29.44Q77.50-29.44 75.39-28.35L75.39-28.35L75.39-28.35Q73.28-27.26 73.28-25.09L73.28-25.09L73.28 0L69.70 0ZM92.80-8.13L92.80-8.13Q93.18-5.25 95.68-3.81L95.68-3.81L95.68-3.81Q98.18-2.37 101.25-2.37L101.25-2.37L101.25-2.37Q104.13-2.37 106.50-3.68L106.50-3.68L106.50-3.68Q108.86-4.99 108.86-7.94L108.86-7.94L108.86-7.94Q108.86-9.86 107.74-11.10L107.74-11.10L107.74-11.10Q106.62-12.35 104.96-13.12L104.96-13.12L104.96-13.12Q103.30-13.89 100.48-14.78L100.48-14.78L100.48-14.78Q97.34-15.81 95.36-16.70L95.36-16.70L95.36-16.70Q93.38-17.60 91.90-19.23L91.90-19.23L91.90-19.23Q90.43-20.86 90.18-23.36L90.18-23.36L90.11-24.13L90.11-24.13Q90.11-26.24 91.30-28.26L91.30-28.26L91.30-28.26Q92.48-30.27 94.94-31.55L94.94-31.55L94.94-31.55Q97.41-32.83 101.12-32.83L101.12-32.83L101.12-32.83Q103.17-32.83 104.74-32.42L104.74-32.42L104.74-32.42Q106.30-32 107.20-31.55L107.20-31.55L107.20-31.55Q108.10-31.10 108.29-30.98L108.29-30.98L107.07-28.03L107.07-28.03Q106.88-28.16 106.14-28.54L106.14-28.54L106.14-28.54Q105.41-28.93 104.06-29.31L104.06-29.31L104.06-29.31Q102.72-29.70 101.12-29.70L101.12-29.70L101.12-29.70Q98.05-29.70 95.87-28.26L95.87-28.26L95.87-28.26Q93.70-26.82 93.70-24.26L93.70-24.26L93.70-24.26Q93.70-21.82 95.68-20.54L95.68-20.54L95.68-20.54Q97.66-19.26 101.76-17.98L101.76-17.98L101.76-17.98Q105.22-16.83 107.33-15.81L107.33-15.81L107.33-15.81Q109.44-14.78 110.94-12.90L110.94-12.90L110.94-12.90Q112.45-11.01 112.45-8L112.45-8L112.45-8Q112.45-4.16 109.60-1.60L109.60-1.60L109.60-1.60Q106.75 0.96 101.25 0.96L101.25 0.96L101.25 0.96Q97.60 0.96 94.94-0.29L94.94-0.29L94.94-0.29Q92.29-1.54 90.91-3.58L90.91-3.58L90.91-3.58Q89.54-5.63 89.41-8.13L89.41-8.13L92.80-8.13ZM124.29 0.83L124.29 0.83Q120.70-0.19 119.10-2.43L119.10-2.43L119.10-2.43Q117.50-4.67 117.50-8.45L117.50-8.45L117.50-44.80L121.09-44.80L121.09-32.06L128.77-32.06L127.23-28.67L121.09-28.67L121.09-8.45L121.09-8.45Q121.09-3.33 125.31-1.92L125.31-1.92L124.29 0.83ZM159.10-11.78L159.10-11.78Q159.10-6.40 156.16-2.88L156.16-2.88L156.16-2.88Q153.22 0.64 147.26 0.64L147.26 0.64L147.26 0.64Q141.31 0.64 138.27-2.91L138.27-2.91L138.27-2.91Q135.23-6.46 135.23-11.78L135.23-11.78L135.23-20.22L135.23-20.22Q135.23-26.30 138.34-29.54L138.34-29.54L138.34-29.54Q141.44-32.77 147.26-32.77L147.26-32.77L147.26-32.77Q152.83-32.77 155.97-29.41L155.97-29.41L155.97-29.41Q159.10-26.05 159.10-20.22L159.10-20.22L159.10-11.78ZM155.52-20.22L155.52-20.22Q155.52-25.02 153.31-27.26L153.31-27.26L153.31-27.26Q151.10-29.50 147.26-29.50L147.26-29.50L147.26-29.50Q143.30-29.50 141.06-27.26L141.06-27.26L141.06-27.26Q138.82-25.02 138.82-20.22L138.82-20.22L138.82-11.14L138.82-11.14Q138.82-7.30 141.09-4.93L141.09-4.93L141.09-4.93Q143.36-2.56 147.26-2.56L147.26-2.56L147.26-2.56Q151.23-2.56 153.38-4.90L153.38-4.90L153.38-4.90Q155.52-7.23 155.52-11.14L155.52-11.14L155.52-20.22ZM165.12 0L165.12-32.06L168.70-32.06L168.51-29.82L168.51-29.82Q171.52-32.64 176.38-32.64L176.38-32.64L176.38-32.64Q178.11-32.64 181.12-32.06L181.12-32.06L180.16-28.80L180.16-28.80Q178.11-29.44 175.87-29.44L175.87-29.44L175.87-29.44Q172.93-29.44 170.82-28.35L170.82-28.35L170.82-28.35Q168.70-27.26 168.70-25.09L168.70-25.09L168.70 0L165.12 0ZM201.22 10.69L201.22 10.69Q205.44 9.09 205.44 4.03L205.44 4.03L205.44-3.90L205.44-3.90Q202.75 0.77 196.80 0.77L196.80 0.77L196.80 0.77Q191.17 0.77 188.03-2.30L188.03-2.30L188.03-2.30Q184.90-5.38 184.90-11.26L184.90-11.26L184.90-20.80L184.90-20.80Q184.90-26.43 188.19-29.54L188.19-29.54L188.19-29.54Q191.49-32.64 197.06-32.64L197.06-32.64L197.06-32.64Q203.01-32.64 205.70-28.35L205.70-28.35L205.44-32.06L209.02-32.06L209.02 4.10L209.02 4.10Q209.02 7.94 207.42 10.11L207.42 10.11L207.42 10.11Q205.82 12.29 202.18 13.44L202.18 13.44L201.22 10.69ZM205.44-21.50L205.44-21.50Q205.44-25.47 202.88-27.42L202.88-27.42L202.88-27.42Q200.32-29.38 196.80-29.38L196.80-29.38L196.80-29.38Q193.41-29.38 190.94-27.30L190.94-27.30L190.94-27.30Q188.48-25.22 188.48-20.48L188.48-20.48L188.48-10.69L188.48-10.69Q188.48-6.66 190.75-4.61L190.75-4.61L190.75-4.61Q193.02-2.56 196.80-2.56L196.80-2.56L196.80-2.56Q200.38-2.56 202.91-4.77L202.91-4.77L202.91-4.77Q205.44-6.98 205.44-11.07L205.44-11.07L205.44-21.50ZM234.88-2.24L234.88-2.24Q232.58-0.77 229.63 0L229.63 0L229.63 0Q226.69 0.77 223.74 0.77L223.74 0.77L223.74 0.77Q219.01 0.77 216.22-1.57L216.22-1.57L216.22-1.57Q213.44-3.90 213.44-8.58L213.44-8.58L213.44-21.70L213.44-21.70Q213.44-26.88 216.67-29.76L216.67-29.76L216.67-29.76Q219.90-32.64 225.22-32.64L225.22-32.64L225.22-32.64Q230.53-32.64 233.50-29.79L233.50-29.79L233.50-29.79Q236.48-26.94 236.48-21.89L236.48-21.89L236.48-13.57L217.02-12.48L217.02-8.58L217.02-8.58Q217.02-5.50 219.01-3.97L219.01-3.97L219.01-3.97Q220.99-2.43 224.19-2.43L224.19-2.43L224.19-2.43Q228.67-2.43 233.47-4.99L233.47-4.99L234.88-2.24ZM232.90-22.34L232.90-22.34Q232.90-26.30 230.40-27.94L230.40-27.94L230.40-27.94Q227.90-29.57 225.15-29.57L225.15-29.57L225.15-29.57Q221.63-29.57 219.33-27.65L219.33-27.65L219.33-27.65Q217.02-25.73 217.02-21.63L217.02-21.63L217.02-16L232.90-16.77L232.90-22.34ZM248.58 0.83L248.58 0.83Q244.99-0.19 243.39-2.43L243.39-2.43L243.39-2.43Q241.79-4.67 241.79-8.45L241.79-8.45L241.79-44.80L245.38-44.80L245.38-32.06L253.06-32.06L251.52-28.67L245.38-28.67L245.38-8.45L245.38-8.45Q245.38-3.33 249.60-1.92L249.60-1.92L248.58 0.83Z" fill="#ccc"></path></g></g><style>text {
  font-size: 64px;
  font-family: Arial Black;
  dominant-baseline: central;
  text-anchor: middle;
}</style></svg>